<svg xmlns="http://www.w3.org/2000/svg" viewBox="0 0 64 64">
  <rect width="64" height="64" rx="18" fill="#0A7C6E"/>
  <path d="M17 18.5c0-2 1.6-3.5 3.5-3.5h11c4.5 0 8.5 3.1 8.5 7v26c-2.1-2.2-5.3-3.5-8.8-3.5H20.5A3.5 3.5 0 0 1 17 41V18.5Z" fill="#fff" opacity=".96"/>
  <path d="M40 22c0-3.9 3.5-7 8-7h1.5A3.5 3.5 0 0 1 53 18.5V41a3.5 3.5 0 0 1-3.5 3.5H48c-3.2 0-6.1 1.1-8 3V22Z" fill="#FDE68A"/>
  <path d="M25 27h8M25 34h8M45 27h3" stroke="#0A7C6E" stroke-width="3" stroke-linecap="round"/>
</svg>
